<?xml version="1.0" encoding="UTF-8" standalone="no"?>
<!-- Created with Inkscape (http://www.inkscape.org/) -->

<svg
   xmlns:dc="http://purl.org/dc/elements/1.1/"
   xmlns:cc="http://creativecommons.org/ns#"
   xmlns:rdf="http://www.w3.org/1999/02/22-rdf-syntax-ns#"
   xmlns:svg="http://www.w3.org/2000/svg"
   xmlns="http://www.w3.org/2000/svg"
   xmlns:sodipodi="http://sodipodi.sourceforge.net/DTD/sodipodi-0.dtd"
   xmlns:inkscape="http://www.inkscape.org/namespaces/inkscape"
   width="210mm"
   height="297mm"
   viewBox="0 0 744.09448819 1052.3622047"
   id="svg2"
   version="1.1"
   inkscape:version="0.91 r13725"
   sodipodi:docname="Logo_ARN_Club_Prog.svg">
  <defs
     id="defs4" />
  <sodipodi:namedview
     id="base"
     pagecolor="#ffffff"
     bordercolor="#666666"
     borderopacity="1.0"
     inkscape:pageopacity="0.0"
     inkscape:pageshadow="2"
     inkscape:zoom="2.3320463"
     inkscape:cx="409"
     inkscape:cy="510.5"
     inkscape:document-units="px"
     inkscape:current-layer="g3721"
     showgrid="false"
     inkscape:snap-grids="false"
     inkscape:window-width="1366"
     inkscape:window-height="744"
     inkscape:window-x="0"
     inkscape:window-y="24"
     inkscape:window-maximized="1"
     showguides="true"
     inkscape:guide-bbox="true" />
  <metadata
     id="metadata7">
    <rdf:RDF>
      <cc:Work
         rdf:about="">
        <dc:format>image/svg+xml</dc:format>
        <dc:type
           rdf:resource="http://purl.org/dc/dcmitype/StillImage" />
        <dc:title></dc:title>
      </cc:Work>
    </rdf:RDF>
  </metadata>
  <g
     inkscape:groupmode="layer"
     id="layer2"
     inkscape:label="Calque 2" />
  <g
     inkscape:groupmode="layer"
     id="layer3"
     inkscape:label="Calque 3" />
  <g
     inkscape:label="Calque 1"
     inkscape:groupmode="layer"
     id="layer1">
    <path
       style="fill:#ff0000;fill-rule:evenodd;stroke:#000000;stroke-width:1px;stroke-linecap:butt;stroke-linejoin:miter;stroke-opacity:1"
       d="M -354.81836 1022.7949 A 394.24234 389.3143 0 0 0 -749.06055 1412.1094 A 394.24234 389.3143 0 0 0 -354.81836 1801.4219 A 394.24234 389.3143 0 0 0 39.423828 1412.1094 A 394.24234 389.3143 0 0 0 -354.81836 1022.7949 z "
       id="path6608" />
    <g
       transform="matrix(0.5,0,0,0.5,271.08206,368.1001)"
       id="g3721">
      <g
         id="g3723">
        <path
           inkscape:connector-curvature="0"
           d="m 129,157 c 4.4,0 8,3.6 8,8 0,4.4 -3.6,8 -8,8 -4.4,0 -8,-3.6 -8,-8 0,-4.4 3.6,-8 8,-8 m 0,-11 c -10.5,0 -19,8.5 -19,19 0,10.5 8.5,19 19,19 10.5,0 19,-8.5 19,-19 0,-10.5 -8.5,-19 -19,-19 l 0,0 z"
           id="path3725" />
      </g>
      <g
         id="g3727">
        <path
           inkscape:connector-curvature="0"
           d="m 129,133 c 17.6,0 32,14.4 32,32 0,17.6 -14.4,32 -32,32 -17.6,0 -32,-14.4 -32,-32 0,-17.6 14.4,-32 32,-32 m 0,-11 c -23.7,0 -43,19.3 -43,43 0,23.7 19.3,43 43,43 23.7,0 43,-19.3 43,-43 0,-23.7 -19.3,-43 -43,-43 l 0,0 z"
           id="path3729" />
      </g>
      <g
         id="g3731">
        <path
           inkscape:connector-curvature="0"
           d="m 129,157 c 4.4,0 8,3.6 8,8 0,4.4 -3.6,8 -8,8 -4.4,0 -8,-3.6 -8,-8 0,-4.4 3.6,-8 8,-8 m 0,-11 c -10.5,0 -19,8.5 -19,19 0,10.5 8.5,19 19,19 10.5,0 19,-8.5 19,-19 0,-10.5 -8.5,-19 -19,-19 l 0,0 z"
           id="path3733" />
      </g>
      <g
         id="g3735">
        <path
           inkscape:connector-curvature="0"
           d="m 129,133 c 17.6,0 32,14.4 32,32 0,17.6 -14.4,32 -32,32 -17.6,0 -32,-14.4 -32,-32 0,-17.6 14.4,-32 32,-32 m 0,-11 c -23.7,0 -43,19.3 -43,43 0,23.7 19.3,43 43,43 23.7,0 43,-19.3 43,-43 0,-23.7 -19.3,-43 -43,-43 l 0,0 z"
           id="path3737" />
      </g>
      <g
         id="g3739">
        <path
           inkscape:connector-curvature="0"
           d="m 414,157 c 4.4,0 8,3.6 8,8 0,4.4 -3.6,8 -8,8 -4.4,0 -8,-3.6 -8,-8 0,-4.4 3.6,-8 8,-8 m 0,-11 c -10.5,0 -19,8.5 -19,19 0,10.5 8.5,19 19,19 10.5,0 19,-8.5 19,-19 0,-10.5 -8.5,-19 -19,-19 l 0,0 z"
           id="path3741" />
      </g>
      <g
         id="g3743">
        <path
           inkscape:connector-curvature="0"
           d="m 414,133 c 17.6,0 32,14.4 32,32 0,17.6 -14.4,32 -32,32 -17.6,0 -32,-14.4 -32,-32 0,-17.6 14.4,-32 32,-32 m 0,-11 c -23.7,0 -43,19.3 -43,43 0,23.7 19.3,43 43,43 23.7,0 43,-19.3 43,-43 0,-23.7 -19.3,-43 -43,-43 l 0,0 z"
           id="path3745" />
      </g>
      <g
         id="g3747">
        <line
           style="fill:none;stroke:#000000;stroke-width:11;stroke-miterlimit:10"
           class="st0"
           x1="129"
           y1="127.5"
           x2="415"
           y2="127.5"
           id="line3749" />
      </g>
      <path
         style="fill:none;stroke:#000000;stroke-width:8;stroke-miterlimit:10"
         inkscape:connector-curvature="0"
         class="st2"
         d="m 363.9,143.5 -184.8,0 c -1.8,0 -3.2,1.7 -2.7,3.5 l 5.5,21.4 c 0.3,1.2 1.4,2.1 2.7,2.1 l 173.6,0 c 1.3,0 2.4,-0.9 2.7,-2.1 l 5.5,-21.4 c 0.6,-1.8 -0.7,-3.5 -2.5,-3.5 z"
         id="path3751" />
      <g
         id="g3753">
        <line
           style="fill:none;stroke:#000000;stroke-width:11;stroke-linecap:round;stroke-miterlimit:10"
           class="st1"
           x1="176.5"
           y1="244.5"
           x2="367.5"
           y2="244.5"
           id="line3755" />
      </g>
      <g
         id="g3757">
        <line
           style="fill:none;stroke:#000000;stroke-width:11;stroke-linecap:round;stroke-miterlimit:10"
           class="st1"
           x1="287.89999"
           y1="260.5"
           x2="287.89999"
           y2="558.5"
           id="line3759" />
      </g>
      <g
         id="g3761">
        <line
           style="fill:none;stroke:#000000;stroke-width:11;stroke-linecap:round;stroke-miterlimit:10"
           class="st1"
           x1="321.79999"
           y1="260.5"
           x2="321.79999"
           y2="558.5"
           id="line3763" />
      </g>
      <g
         id="g3765">
        <line
           style="fill:none;stroke:#000000;stroke-width:11;stroke-linecap:round;stroke-miterlimit:10"
           class="st1"
           x1="352"
           y1="260.5"
           x2="352"
           y2="558.5"
           id="line3767" />
      </g>
      <g
         id="g3769">
        <line
           style="fill:none;stroke:#000000;stroke-width:11;stroke-linecap:round;stroke-miterlimit:10"
           class="st1"
           x1="188.5"
           y1="261.5"
           x2="188.5"
           y2="353.5"
           id="line3771" />
      </g>
      <g
         id="g3773">
        <line
           style="fill:none;stroke:#000000;stroke-width:11;stroke-linecap:round;stroke-miterlimit:10"
           class="st1"
           x1="188.5"
           y1="411.5"
           x2="188.5"
           y2="559.5"
           id="line3775" />
      </g>
      <g
         id="g3777">
        <path
           inkscape:connector-curvature="0"
           d="m 189,360 c 2.8,0 5,2.2 5,5 0,2.8 -2.2,5 -5,5 -2.8,0 -5,-2.2 -5,-5 0,-2.8 2.2,-5 5,-5 m 0,-8 c -7.2,0 -13,5.8 -13,13 0,7.2 5.8,13 13,13 7.2,0 13,-5.8 13,-13 0,-7.2 -5.8,-13 -13,-13 l 0,0 z"
           id="path3779" />
      </g>
      <g
         id="g3781">
        <path
           inkscape:connector-curvature="0"
           d="m 189,408 c -5,0 -9,-4 -9,-9 0,-5 4,-9 9,-9 5,0 9,4 9,9 0,5 -4,9 -9,9 z"
           id="path3783" />
        <path
           inkscape:connector-curvature="0"
           d="m 189,394 c 2.8,0 5,2.2 5,5 0,2.8 -2.2,5 -5,5 -2.8,0 -5,-2.2 -5,-5 0,-2.8 2.2,-5 5,-5 m 0,-8 c -7.2,0 -13,5.8 -13,13 0,7.2 5.8,13 13,13 7.2,0 13,-5.8 13,-13 0,-7.2 -5.8,-13 -13,-13 l 0,0 z"
           id="path3785" />
      </g>
      <g
         id="g3787">
        <line
           style="fill:none;stroke:#000000;stroke-width:11;stroke-linecap:round;stroke-miterlimit:10"
           class="st1"
           x1="220.5"
           y1="261.5"
           x2="220.5"
           y2="385.5"
           id="line3789" />
      </g>
      <g
         id="g3791">
        <line
           style="fill:none;stroke:#000000;stroke-width:11;stroke-linecap:round;stroke-miterlimit:10"
           class="st1"
           x1="220.5"
           y1="424.5"
           x2="220.5"
           y2="470.5"
           id="line3793" />
      </g>
      <g
         id="g3795">
        <path
           inkscape:connector-curvature="0"
           d="m 221,392 c 2.8,0 5,2.2 5,5 0,2.8 -2.2,5 -5,5 -2.8,0 -5,-2.2 -5,-5 0,-2.8 2.2,-5 5,-5 m 0,-8 c -7.2,0 -13,5.8 -13,13 0,7.2 5.8,13 13,13 7.2,0 13,-5.8 13,-13 0,-7.2 -5.8,-13 -13,-13 l 0,0 z"
           id="path3797" />
      </g>
      <g
         id="g3799">
        <path
           inkscape:connector-curvature="0"
           d="m 221,439 c -5,0 -9,-4 -9,-9 0,-5 4,-9 9,-9 5,0 9,4 9,9 0,5 -4,9 -9,9 z"
           id="path3801" />
        <path
           inkscape:connector-curvature="0"
           d="m 221,425 c 2.8,0 5,2.2 5,5 0,2.8 -2.2,5 -5,5 -2.8,0 -5,-2.2 -5,-5 0,-2.8 2.2,-5 5,-5 m 0,-8 c -7.2,0 -13,5.8 -13,13 0,7.2 5.8,13 13,13 7.2,0 13,-5.8 13,-13 0,-7.2 -5.8,-13 -13,-13 l 0,0 z"
           id="path3803" />
      </g>
      <g
         id="g3805">
        <path
           inkscape:connector-curvature="0"
           d="m 221,476 c 2.8,0 5,2.2 5,5 0,2.8 -2.2,5 -5,5 -2.8,0 -5,-2.2 -5,-5 0,-2.8 2.2,-5 5,-5 m 0,-8 c -7.2,0 -13,5.8 -13,13 0,7.2 5.8,13 13,13 7.2,0 13,-5.8 13,-13 0,-7.2 -5.8,-13 -13,-13 l 0,0 z"
           id="path3807" />
      </g>
      <g
         id="g3809">
        <line
           style="fill:none;stroke:#000000;stroke-width:11;stroke-linecap:round;stroke-miterlimit:10"
           class="st1"
           x1="220.5"
           y1="514.5"
           x2="220.5"
           y2="560.5"
           id="line3811" />
      </g>
      <g
         id="g3813">
        <path
           inkscape:connector-curvature="0"
           d="m 221,523 c -5,0 -9,-4 -9,-9 0,-5 4,-9 9,-9 5,0 9,4 9,9 0,5 -4,9 -9,9 z"
           id="path3815" />
        <path
           inkscape:connector-curvature="0"
           d="m 221,509 c 2.8,0 5,2.2 5,5 0,2.8 -2.2,5 -5,5 -2.8,0 -5,-2.2 -5,-5 0,-2.8 2.2,-5 5,-5 m 0,-8 c -7.2,0 -13,5.8 -13,13 0,7.2 5.8,13 13,13 7.2,0 13,-5.8 13,-13 0,-7.2 -5.8,-13 -13,-13 l 0,0 z"
           id="path3817" />
      </g>
      <g
         id="g3819">
        <line
           style="fill:none;stroke:#000000;stroke-width:11;stroke-linecap:round;stroke-miterlimit:10"
           class="st1"
           x1="255.5"
           y1="558.5"
           x2="255.5"
           y2="434.5"
           id="line3821" />
      </g>
      <g
         id="g3823">
        <line
           style="fill:none;stroke:#000000;stroke-width:11;stroke-linecap:round;stroke-miterlimit:10"
           class="st1"
           x1="255.5"
           y1="395.5"
           x2="255.5"
           y2="349.5"
           id="line3825" />
      </g>
      <g
         id="g3827">
        <path
           inkscape:connector-curvature="0"
           d="m 255,418 c 2.8,0 5,2.2 5,5 0,2.8 -2.2,5 -5,5 -2.8,0 -5,-2.2 -5,-5 0,-2.8 2.2,-5 5,-5 m 0,-8 c -7.2,0 -13,5.8 -13,13 0,7.2 5.8,13 13,13 7.2,0 13,-5.8 13,-13 0,-7.2 -5.8,-13 -13,-13 l 0,0 z"
           id="path3829" />
      </g>
      <g
         id="g3831">
        <path
           inkscape:connector-curvature="0"
           d="m 255,399 c -5,0 -9,-4 -9,-9 0,-5 4,-9 9,-9 5,0 9,4 9,9 0,5 -4,9 -9,9 z"
           id="path3833" />
        <path
           inkscape:connector-curvature="0"
           d="m 255,385 c 2.8,0 5,2.2 5,5 0,2.8 -2.2,5 -5,5 -2.8,0 -5,-2.2 -5,-5 0,-2.8 2.2,-5 5,-5 m 0,-8 c -7.2,0 -13,5.8 -13,13 0,7.2 5.8,13 13,13 7.2,0 13,-5.8 13,-13 0,-7.2 -5.8,-13 -13,-13 l 0,0 z"
           id="path3835" />
      </g>
      <g
         id="g3837">
        <path
           inkscape:connector-curvature="0"
           d="m 255,334 c 2.8,0 5,2.2 5,5 0,2.8 -2.2,5 -5,5 -2.8,0 -5,-2.2 -5,-5 0,-2.8 2.2,-5 5,-5 m 0,-8 c -7.2,0 -13,5.8 -13,13 0,7.2 5.8,13 13,13 7.2,0 13,-5.8 13,-13 0,-7.2 -5.8,-13 -13,-13 l 0,0 z"
           id="path3839" />
      </g>
      <g
         id="g3841">
        <line
           style="fill:none;stroke:#000000;stroke-width:11;stroke-linecap:round;stroke-miterlimit:10"
           class="st1"
           x1="255.5"
           y1="305.5"
           x2="255.5"
           y2="259.5"
           id="line3843" />
      </g>
      <g
         id="g3845">
        <path
           inkscape:connector-curvature="0"
           d="m 255,315 c -5,0 -9,-4 -9,-9 0,-5 4,-9 9,-9 5,0 9,4 9,9 0,5 -4,9 -9,9 z"
           id="path3847" />
        <path
           inkscape:connector-curvature="0"
           d="m 255,301 c 2.8,0 5,2.2 5,5 0,2.8 -2.2,5 -5,5 -2.8,0 -5,-2.2 -5,-5 0,-2.8 2.2,-5 5,-5 m 0,-8 c -7.2,0 -13,5.8 -13,13 0,7.2 5.8,13 13,13 7.2,0 13,-5.8 13,-13 0,-7.2 -5.8,-13 -13,-13 l 0,0 z"
           id="path3849" />
      </g>
      <g
         id="g3851">
        <path
           inkscape:connector-curvature="0"
           d="m 348,209.5 c 3.9,0 7,3.1 7,7 0,1.9 -0.7,3.6 -2,5 -1.3,1.3 -3.1,2.1 -5,2.1 -3.9,0 -7,-3.1 -7,-7 0,-4 3.1,-7.1 7,-7.1 l 0,0 m 0,-8 c 0,0 0,0 0,0 -8.3,0 -15,6.7 -15,15 0,8.3 6.7,15 15,15 0,0 0,0 0,0 8.3,0 15,-6.7 15,-15 0,-8.3 -6.7,-15 -15,-15 l 0,0 z"
           id="path3853" />
      </g>
      <g
         id="g3855">
        <path
           inkscape:connector-curvature="0"
           d="m 309,209.5 c 3.9,0 7,3.1 7,7 0,3.9 -3.1,7 -7,7 -3.9,0 -7,-3.1 -7,-7 0,-1.9 0.7,-3.6 2,-5 1.4,-1.3 3.1,-2 5,-2 l 0,0 m 0,-8 c 0,0 0,0 0,0 -8.3,0 -15,6.7 -15,15 0,8.3 6.7,15 15,15 0,0 0,0 0,0 8.3,0 15,-6.7 15,-15 0,-8.3 -6.7,-15 -15,-15 l 0,0 z"
           id="path3857" />
      </g>
      <g
         id="g3859">
        <path
           inkscape:connector-curvature="0"
           d="m 270,209.5 c 3.9,0 7,3.1 7,7 0,3.9 -3.1,7 -7,7 -3.9,0 -7,-3.1 -7,-7 0,-1.9 0.7,-3.6 2,-5 1.4,-1.3 3.1,-2 5,-2 l 0,0 m 0,-8 c 0,0 0,0 0,0 -8.3,0 -15,6.7 -15,15 0,8.3 6.7,15 15,15 0,0 0,0 0,0 8.3,0 15,-6.7 15,-15 0,-8.3 -6.7,-15 -15,-15 l 0,0 z"
           id="path3861" />
      </g>
      <g
         id="g3863">
        <path
           inkscape:connector-curvature="0"
           d="m 231,209.5 c 3.9,0 7,3.1 7,7 0,3.9 -3.1,7 -7,7 -3.9,0 -7,-3.1 -7,-7 0,-1.9 0.7,-3.6 2,-5 1.4,-1.3 3.1,-2 5,-2 l 0,0 m 0,-8 c 0,0 0,0 0,0 -8.3,0 -15,6.7 -15,15 0,8.3 6.7,15 15,15 0,0 0,0 0,0 8.3,0 15,-6.7 15,-15 0,-8.3 -6.7,-15 -15,-15 l 0,0 z"
           id="path3865" />
      </g>
      <g
         id="g3867">
        <path
           inkscape:connector-curvature="0"
           d="m 192,209.5 c 3.9,0 7,3.1 7,7 0,1.9 -0.7,3.6 -2,5 -1.3,1.3 -3.1,2.1 -5,2.1 -3.9,0 -7,-3.1 -7,-7 0,-4 3.1,-7.1 7,-7.1 l 0,0 m 0,-8 c 0,0 0,0 0,0 -8.3,0 -15,6.7 -15,15 0,8.3 6.7,15 15,15 0,0 0,0 0,0 8.3,0 15,-6.7 15,-15 0,-8.3 -6.7,-15 -15,-15 l 0,0 z"
           id="path3869" />
      </g>
      <g
         id="g3871">
        <line
           style="fill:none;stroke:#000000;stroke-width:8;stroke-miterlimit:10"
           class="st2"
           x1="203"
           y1="211"
           x2="221"
           y2="211"
           id="line3873" />
      </g>
      <line
         style="fill:none;stroke:#000000;stroke-width:8;stroke-miterlimit:10"
         class="st2"
         x1="231"
         y1="227"
         x2="231"
         y2="242"
         id="line3875" />
      <line
         style="fill:none;stroke:#000000;stroke-width:8;stroke-miterlimit:10"
         class="st2"
         x1="161"
         y1="211"
         x2="181"
         y2="211"
         id="line3877" />
      <line
         style="fill:none;stroke:#000000;stroke-width:8;stroke-linecap:round;stroke-miterlimit:10"
         class="st3"
         x1="148"
         y1="198"
         x2="161"
         y2="211"
         id="line3879" />
      <path
         style="fill:none;stroke:#000000;stroke-width:8;stroke-miterlimit:10"
         d="m 128.99994,140.49902 0,11.30078 0,-11.30078 z m 16.89844,6.90234 -8,8.09766 8,-8.09766 z m -34.19922,0.5 7.80078,8.09766 -7.80078,-8.09766 z m -6.69922,17 11.30078,0.19922 -11.30078,-0.19922 z m 36.69922,0.79688 11.30078,0.30078 -11.30078,-0.30078 z m -21.59766,7.80078 -8,8.10156 8,-8.10156 z m 17.09766,0.80078 7.80078,8.19922 -7.80078,-8.19922 z m -8.19922,2.89844 0,11.30078 0,-11.30078 z"
         id="line3881"
         inkscape:connector-curvature="0" />
      <line
         style="fill:none;stroke:#000000;stroke-width:8;stroke-linecap:round;stroke-miterlimit:10"
         class="st3"
         x1="182"
         y1="187"
         x2="361"
         y2="187"
         id="line3897" />
      <path
         inkscape:connector-curvature="0"
         style="fill:none;stroke:#000000;stroke-width:8;stroke-miterlimit:10"
         d="m 413.57987,139.5583 0,11.30078 0,-11.30078 z m 16.89844,6.90234 -8,8.09766 8,-8.09766 z m -34.19922,0.5 7.80078,8.09766 -7.80078,-8.09766 z m -6.69922,17 11.30078,0.1992 -11.30078,-0.1992 z m 36.69922,0.79688 11.30078,0.30078 -11.30078,-0.30078 z m -21.59766,7.80078 -8,8.10156 8,-8.10156 z m 17.09766,0.80078 7.80078,8.19922 -7.80078,-8.19922 z m -8.19922,2.89844 0,11.30078 0,-11.30078 z"
         id="line3881-3" />
    </g>
  </g>
  <style
     id="style3337"
     type="text/css">
	.st0{fill:none;stroke:#000000;stroke-width:11;stroke-miterlimit:10;}
	.st1{fill:none;stroke:#000000;stroke-width:11;stroke-linecap:round;stroke-miterlimit:10;}
	.st2{fill:none;stroke:#000000;stroke-width:8;stroke-miterlimit:10;}
	.st3{fill:none;stroke:#000000;stroke-width:8;stroke-linecap:round;stroke-miterlimit:10;}
	.st4{fill:none;stroke:#000000;stroke-width:2;stroke-miterlimit:10;}
</style>
</svg>
